<mxfile host="app.diagrams.net" modified="2024-05-15T06:42:07.133Z" agent="Mozilla/5.0 (Windows NT 10.0; Win64; x64) AppleWebKit/537.36 (KHTML, like Gecko) Chrome/124.0.0.0 Safari/537.36 Edg/124.0.0.0" etag="wp-rki4lvqqiHzja4T1m" version="24.4.0" type="github">
  <diagram id="6a731a19-8d31-9384-78a2-239565b7b9f0" name="Page-1">
    <mxGraphModel dx="3266" dy="1145" grid="0" gridSize="10" guides="1" tooltips="1" connect="1" arrows="1" fold="1" page="0" pageScale="1" pageWidth="1169" pageHeight="827" background="#000000" math="0" shadow="0">
      <root>
        <mxCell id="0" />
        <mxCell id="1" parent="0" />
        <mxCell id="fNavXlTei2wndbR-Wmgy-1898" value="" style="whiteSpace=wrap;html=1;fillColor=#666666;" vertex="1" parent="1">
          <mxGeometry x="-1154" y="87" width="385" height="422" as="geometry" />
        </mxCell>
        <mxCell id="1749" value="一级路由&lt;span style=&quot;background-color: initial;&quot;&gt;Router1&lt;/span&gt;&lt;div&gt;&lt;span style=&quot;background-color: initial;&quot;&gt;0x0007&lt;/span&gt;&lt;/div&gt;" style="rounded=1;whiteSpace=wrap;html=1;shadow=0;labelBackgroundColor=none;strokeColor=none;strokeWidth=3;fillColor=#FF33FF;fontFamily=Helvetica;fontSize=16;fontColor=#FFFFFF;align=center;fontStyle=1;spacing=5;arcSize=7;perimeterSpacing=2;" parent="1" vertex="1">
          <mxGeometry x="-62.5" y="436.5" width="197" height="70" as="geometry" />
        </mxCell>
        <mxCell id="1750" value="" style="edgeStyle=none;rounded=1;jumpStyle=none;html=1;shadow=0;labelBackgroundColor=none;startArrow=classic;startFill=1;jettySize=auto;orthogonalLoop=1;strokeColor=#004C99;strokeWidth=3;fontFamily=Helvetica;fontSize=14;fontColor=#FFFFFF;spacing=5;fontStyle=1;fillColor=#b0e3e6;" parent="1" source="1753" target="1756" edge="1">
          <mxGeometry relative="1" as="geometry" />
        </mxCell>
        <mxCell id="1752" value="" style="edgeStyle=none;rounded=1;jumpStyle=none;html=1;shadow=0;labelBackgroundColor=none;startArrow=classic;startFill=1;jettySize=auto;orthogonalLoop=1;strokeColor=#004C99;strokeWidth=3;fontFamily=Helvetica;fontSize=14;fontColor=#FFFFFF;spacing=5;fontStyle=1;fillColor=#b0e3e6;" parent="1" source="1753" target="fNavXlTei2wndbR-Wmgy-1851" edge="1">
          <mxGeometry relative="1" as="geometry">
            <mxPoint x="-598.4563662374821" y="783" as="targetPoint" />
          </mxGeometry>
        </mxCell>
        <mxCell id="1753" value="&lt;h1&gt;服务器&lt;/h1&gt;&lt;h1&gt;0x0001&lt;/h1&gt;" style="rounded=1;whiteSpace=wrap;html=1;shadow=0;labelBackgroundColor=none;strokeColor=none;strokeWidth=3;fillColor=#383800;fontFamily=Helvetica;fontSize=14;fontColor=#FFFFFF;align=center;spacing=5;fontStyle=1;arcSize=7;perimeterSpacing=2;horizontal=1;" parent="1" vertex="1">
          <mxGeometry x="-669" y="424.25" width="150" height="94.5" as="geometry" />
        </mxCell>
        <mxCell id="1756" value="&lt;h3&gt;&lt;font color=&quot;#ffffff&quot;&gt;客户端&lt;/font&gt;&lt;/h3&gt;&lt;h3&gt;&lt;font color=&quot;#ffffff&quot;&gt;0X0002&lt;/font&gt;&lt;/h3&gt;" style="rounded=1;whiteSpace=wrap;html=1;shadow=0;labelBackgroundColor=none;strokeWidth=3;fontFamily=Helvetica;fontSize=14;align=center;spacing=5;fontStyle=0;arcSize=7;perimeterSpacing=2;fillColor=#004C99;strokeColor=#6c8ebf;" parent="1" vertex="1">
          <mxGeometry x="-669" y="126" width="150" height="69" as="geometry" />
        </mxCell>
        <mxCell id="1770" value="" style="edgeStyle=none;rounded=0;jumpStyle=none;html=1;shadow=0;labelBackgroundColor=none;startArrow=classic;startFill=1;endArrow=classic;endFill=1;jettySize=auto;orthogonalLoop=1;strokeColor=#004C99;strokeWidth=3;fontFamily=Helvetica;fontSize=14;fontColor=#FFFFFF;spacing=5;" parent="1" source="1749" target="fNavXlTei2wndbR-Wmgy-1852" edge="1">
          <mxGeometry relative="1" as="geometry">
            <mxPoint x="-35.11111111111086" y="254.4999999999999" as="sourcePoint" />
            <mxPoint x="36" y="188" as="targetPoint" />
          </mxGeometry>
        </mxCell>
        <mxCell id="fNavXlTei2wndbR-Wmgy-1784" value="" style="endArrow=classic;startArrow=classic;html=1;rounded=0;strokeColor=#FF33FF;strokeWidth=3;" edge="1" parent="1" source="1753" target="1749">
          <mxGeometry width="50" height="50" relative="1" as="geometry">
            <mxPoint x="58" y="533" as="sourcePoint" />
            <mxPoint x="108" y="483" as="targetPoint" />
            <Array as="points" />
          </mxGeometry>
        </mxCell>
        <mxCell id="fNavXlTei2wndbR-Wmgy-1788" value="" style="edgeStyle=none;rounded=0;jumpStyle=none;html=1;shadow=0;labelBackgroundColor=none;startArrow=classic;startFill=1;endArrow=classic;endFill=1;jettySize=auto;orthogonalLoop=1;strokeColor=#004C99;strokeWidth=3;fontFamily=Helvetica;fontSize=14;fontColor=#FFFFFF;spacing=5;" edge="1" parent="1" source="1749" target="fNavXlTei2wndbR-Wmgy-1853">
          <mxGeometry relative="1" as="geometry">
            <mxPoint x="188" y="470" as="sourcePoint" />
            <mxPoint x="231.88906497622838" y="188" as="targetPoint" />
          </mxGeometry>
        </mxCell>
        <mxCell id="fNavXlTei2wndbR-Wmgy-1791" value="二级路由&lt;span style=&quot;background-color: initial;&quot;&gt;Router2&lt;/span&gt;&lt;div&gt;&lt;span style=&quot;background-color: initial;&quot;&gt;0x000D&lt;/span&gt;&lt;/div&gt;" style="rounded=1;whiteSpace=wrap;html=1;shadow=0;labelBackgroundColor=none;strokeColor=none;strokeWidth=3;fillColor=#FF6666;fontFamily=Helvetica;fontSize=16;fontColor=#FFFFFF;align=center;fontStyle=1;spacing=5;arcSize=7;perimeterSpacing=2;" vertex="1" parent="1">
          <mxGeometry x="550" y="436.5" width="206" height="70" as="geometry" />
        </mxCell>
        <mxCell id="fNavXlTei2wndbR-Wmgy-1793" value="" style="edgeStyle=none;rounded=0;jumpStyle=none;html=1;shadow=0;labelBackgroundColor=none;startArrow=classic;startFill=1;endArrow=classic;endFill=1;jettySize=auto;orthogonalLoop=1;strokeColor=#004C99;strokeWidth=3;fontFamily=Helvetica;fontSize=14;fontColor=#FFFFFF;spacing=5;" edge="1" parent="1" source="fNavXlTei2wndbR-Wmgy-1791" target="fNavXlTei2wndbR-Wmgy-1866">
          <mxGeometry relative="1" as="geometry">
            <mxPoint x="553.8888888888891" y="254.4999999999999" as="sourcePoint" />
            <mxPoint x="625" y="188" as="targetPoint" />
          </mxGeometry>
        </mxCell>
        <mxCell id="fNavXlTei2wndbR-Wmgy-1797" value="" style="edgeStyle=none;rounded=0;jumpStyle=none;html=1;shadow=0;labelBackgroundColor=none;startArrow=classic;startFill=1;endArrow=classic;endFill=1;jettySize=auto;orthogonalLoop=1;strokeColor=#004C99;strokeWidth=3;fontFamily=Helvetica;fontSize=14;fontColor=#FFFFFF;spacing=5;" edge="1" parent="1" source="fNavXlTei2wndbR-Wmgy-1791" target="fNavXlTei2wndbR-Wmgy-1867">
          <mxGeometry relative="1" as="geometry">
            <mxPoint x="777" y="470" as="sourcePoint" />
            <mxPoint x="820.8890649762284" y="188" as="targetPoint" />
          </mxGeometry>
        </mxCell>
        <mxCell id="fNavXlTei2wndbR-Wmgy-1800" value="" style="endArrow=classic;startArrow=classic;html=1;rounded=0;strokeColor=#FF6666;strokeWidth=3;" edge="1" parent="1" source="1749" target="fNavXlTei2wndbR-Wmgy-1791">
          <mxGeometry width="50" height="50" relative="1" as="geometry">
            <mxPoint x="213" y="474" as="sourcePoint" />
            <mxPoint x="448" y="474" as="targetPoint" />
            <Array as="points" />
          </mxGeometry>
        </mxCell>
        <mxCell id="fNavXlTei2wndbR-Wmgy-1835" value="" style="group;strokeWidth=3;" vertex="1" connectable="0" parent="1">
          <mxGeometry x="-674" y="69" width="183" height="42" as="geometry" />
        </mxCell>
        <mxCell id="fNavXlTei2wndbR-Wmgy-1826" value="&lt;h3 style=&quot;font-size: 14px;&quot;&gt;目的地址&lt;/h3&gt;" style="rounded=0;whiteSpace=wrap;html=1;fillColor=#6666FF;strokeColor=#6c8ebf;fontSize=14;" vertex="1" parent="fNavXlTei2wndbR-Wmgy-1835">
          <mxGeometry width="91.5" height="21" as="geometry" />
        </mxCell>
        <mxCell id="fNavXlTei2wndbR-Wmgy-1827" value="&lt;h3&gt;原地址&lt;/h3&gt;" style="rounded=0;whiteSpace=wrap;html=1;fillColor=#00FF00;strokeColor=#b85450;" vertex="1" parent="fNavXlTei2wndbR-Wmgy-1835">
          <mxGeometry x="91.5" width="91.5" height="21" as="geometry" />
        </mxCell>
        <mxCell id="fNavXlTei2wndbR-Wmgy-1833" value="&lt;h3 style=&quot;font-size: 14px;&quot;&gt;0x0002&lt;/h3&gt;" style="rounded=0;whiteSpace=wrap;html=1;fillColor=#6666FF;strokeColor=#6c8ebf;fontSize=14;" vertex="1" parent="fNavXlTei2wndbR-Wmgy-1835">
          <mxGeometry y="21" width="91.5" height="21" as="geometry" />
        </mxCell>
        <mxCell id="fNavXlTei2wndbR-Wmgy-1834" value="&lt;h3&gt;0x0001&lt;/h3&gt;" style="rounded=0;whiteSpace=wrap;html=1;fillColor=#00FF00;strokeColor=#b85450;" vertex="1" parent="fNavXlTei2wndbR-Wmgy-1835">
          <mxGeometry x="91.5" y="21" width="91.5" height="21" as="geometry" />
        </mxCell>
        <mxCell id="fNavXlTei2wndbR-Wmgy-1851" value="&lt;h3&gt;&lt;font color=&quot;#ffffff&quot;&gt;客户端&lt;/font&gt;&lt;/h3&gt;&lt;h3&gt;&lt;font color=&quot;#ffffff&quot;&gt;0X0003&lt;/font&gt;&lt;/h3&gt;" style="rounded=1;whiteSpace=wrap;html=1;shadow=0;labelBackgroundColor=none;strokeWidth=3;fontFamily=Helvetica;fontSize=14;align=center;spacing=5;fontStyle=0;arcSize=7;perimeterSpacing=2;fillColor=#004C99;strokeColor=#6c8ebf;" vertex="1" parent="1">
          <mxGeometry x="-674" y="785" width="150" height="69" as="geometry" />
        </mxCell>
        <mxCell id="fNavXlTei2wndbR-Wmgy-1852" value="&lt;h3&gt;&lt;font color=&quot;#ffffff&quot;&gt;客户端&lt;/font&gt;&lt;/h3&gt;&lt;h3&gt;&lt;font color=&quot;#ffffff&quot;&gt;0X0008&lt;/font&gt;&lt;/h3&gt;" style="rounded=1;whiteSpace=wrap;html=1;shadow=0;labelBackgroundColor=none;strokeWidth=3;fontFamily=Helvetica;fontSize=14;align=center;spacing=5;fontStyle=0;arcSize=7;perimeterSpacing=2;fillColor=#004C99;strokeColor=#6c8ebf;" vertex="1" parent="1">
          <mxGeometry x="219" y="309" width="150" height="69" as="geometry" />
        </mxCell>
        <mxCell id="fNavXlTei2wndbR-Wmgy-1853" value="&lt;h3&gt;&lt;font color=&quot;#ffffff&quot;&gt;客户端&lt;/font&gt;&lt;/h3&gt;&lt;h3&gt;&lt;font color=&quot;#ffffff&quot;&gt;0X0009&lt;/font&gt;&lt;/h3&gt;" style="rounded=1;whiteSpace=wrap;html=1;shadow=0;labelBackgroundColor=none;strokeWidth=3;fontFamily=Helvetica;fontSize=14;align=center;spacing=5;fontStyle=0;arcSize=7;perimeterSpacing=2;fillColor=#004C99;strokeColor=#6c8ebf;" vertex="1" parent="1">
          <mxGeometry x="220" y="537" width="150" height="69" as="geometry" />
        </mxCell>
        <mxCell id="fNavXlTei2wndbR-Wmgy-1854" value="一级路由&lt;span style=&quot;background-color: initial;&quot;&gt;Router_A1&lt;/span&gt;&lt;div&gt;&lt;span style=&quot;background-color: initial;&quot;&gt;0x000A&lt;/span&gt;&lt;/div&gt;" style="rounded=1;whiteSpace=wrap;html=1;shadow=0;labelBackgroundColor=none;strokeColor=none;strokeWidth=3;fillColor=#FF33FF;fontFamily=Helvetica;fontSize=16;fontColor=#FFFFFF;align=center;fontStyle=1;spacing=5;arcSize=7;perimeterSpacing=2;" vertex="1" parent="1">
          <mxGeometry x="-56.5" y="764.5" width="197" height="70" as="geometry" />
        </mxCell>
        <mxCell id="fNavXlTei2wndbR-Wmgy-1855" value="" style="edgeStyle=none;rounded=0;jumpStyle=none;html=1;shadow=0;labelBackgroundColor=none;startArrow=classic;startFill=1;endArrow=classic;endFill=1;jettySize=auto;orthogonalLoop=1;strokeColor=#004C99;strokeWidth=3;fontFamily=Helvetica;fontSize=14;fontColor=#FFFFFF;spacing=5;" edge="1" parent="1" source="fNavXlTei2wndbR-Wmgy-1854" target="fNavXlTei2wndbR-Wmgy-1858">
          <mxGeometry relative="1" as="geometry">
            <mxPoint x="-29.11111111111086" y="582.4999999999999" as="sourcePoint" />
            <mxPoint x="42" y="516" as="targetPoint" />
          </mxGeometry>
        </mxCell>
        <mxCell id="fNavXlTei2wndbR-Wmgy-1856" value="" style="endArrow=classic;startArrow=classic;html=1;rounded=0;strokeColor=#FF33FF;strokeWidth=3;" edge="1" parent="1" target="fNavXlTei2wndbR-Wmgy-1854" source="1753">
          <mxGeometry width="50" height="50" relative="1" as="geometry">
            <mxPoint x="-511" y="800" as="sourcePoint" />
            <mxPoint x="114" y="811" as="targetPoint" />
            <Array as="points" />
          </mxGeometry>
        </mxCell>
        <mxCell id="fNavXlTei2wndbR-Wmgy-1857" value="" style="edgeStyle=none;rounded=0;jumpStyle=none;html=1;shadow=0;labelBackgroundColor=none;startArrow=classic;startFill=1;endArrow=classic;endFill=1;jettySize=auto;orthogonalLoop=1;strokeColor=#004C99;strokeWidth=3;fontFamily=Helvetica;fontSize=14;fontColor=#FFFFFF;spacing=5;" edge="1" parent="1" source="fNavXlTei2wndbR-Wmgy-1854" target="fNavXlTei2wndbR-Wmgy-1859">
          <mxGeometry relative="1" as="geometry">
            <mxPoint x="194" y="798" as="sourcePoint" />
            <mxPoint x="237.88906497622838" y="516" as="targetPoint" />
          </mxGeometry>
        </mxCell>
        <mxCell id="fNavXlTei2wndbR-Wmgy-1858" value="&lt;h3&gt;&lt;font color=&quot;#ffffff&quot;&gt;客户端&lt;/font&gt;&lt;/h3&gt;&lt;h3&gt;&lt;font color=&quot;#ffffff&quot;&gt;0X000B&lt;/font&gt;&lt;/h3&gt;" style="rounded=1;whiteSpace=wrap;html=1;shadow=0;labelBackgroundColor=none;strokeWidth=3;fontFamily=Helvetica;fontSize=14;align=center;spacing=5;fontStyle=0;arcSize=7;perimeterSpacing=2;fillColor=#004C99;strokeColor=#6c8ebf;" vertex="1" parent="1">
          <mxGeometry x="217" y="764.5" width="150" height="69" as="geometry" />
        </mxCell>
        <mxCell id="fNavXlTei2wndbR-Wmgy-1859" value="&lt;h3&gt;&lt;font color=&quot;#ffffff&quot;&gt;客户端&lt;/font&gt;&lt;/h3&gt;&lt;h3&gt;&lt;font color=&quot;#ffffff&quot;&gt;0X000C&lt;/font&gt;&lt;/h3&gt;" style="rounded=1;whiteSpace=wrap;html=1;shadow=0;labelBackgroundColor=none;strokeWidth=3;fontFamily=Helvetica;fontSize=14;align=center;spacing=5;fontStyle=0;arcSize=7;perimeterSpacing=2;fillColor=#004C99;strokeColor=#6c8ebf;" vertex="1" parent="1">
          <mxGeometry x="217" y="854" width="150" height="69" as="geometry" />
        </mxCell>
        <mxCell id="fNavXlTei2wndbR-Wmgy-1860" value="一级路由&lt;span style=&quot;background-color: initial;&quot;&gt;Router_A1&lt;/span&gt;&lt;div&gt;&lt;span style=&quot;background-color: initial;&quot;&gt;0x0006&lt;/span&gt;&lt;/div&gt;" style="rounded=1;whiteSpace=wrap;html=1;shadow=0;labelBackgroundColor=none;strokeColor=none;strokeWidth=3;fillColor=#FF33FF;fontFamily=Helvetica;fontSize=16;fontColor=#FFFFFF;align=center;fontStyle=1;spacing=5;arcSize=7;perimeterSpacing=2;" vertex="1" parent="1">
          <mxGeometry x="-56.5" y="114.5" width="197" height="70" as="geometry" />
        </mxCell>
        <mxCell id="fNavXlTei2wndbR-Wmgy-1861" value="" style="edgeStyle=none;rounded=0;jumpStyle=none;html=1;shadow=0;labelBackgroundColor=none;startArrow=classic;startFill=1;endArrow=classic;endFill=1;jettySize=auto;orthogonalLoop=1;strokeColor=#004C99;strokeWidth=3;fontFamily=Helvetica;fontSize=14;fontColor=#FFFFFF;spacing=5;" edge="1" parent="1" source="fNavXlTei2wndbR-Wmgy-1860" target="fNavXlTei2wndbR-Wmgy-1864">
          <mxGeometry relative="1" as="geometry">
            <mxPoint x="-29.11111111111086" y="-67.50000000000011" as="sourcePoint" />
            <mxPoint x="42" y="-134" as="targetPoint" />
          </mxGeometry>
        </mxCell>
        <mxCell id="fNavXlTei2wndbR-Wmgy-1862" value="" style="endArrow=classic;startArrow=classic;html=1;rounded=0;strokeColor=#FF33FF;strokeWidth=3;" edge="1" parent="1" target="fNavXlTei2wndbR-Wmgy-1860" source="1753">
          <mxGeometry width="50" height="50" relative="1" as="geometry">
            <mxPoint x="-511" y="150" as="sourcePoint" />
            <mxPoint x="114" y="161" as="targetPoint" />
            <Array as="points" />
          </mxGeometry>
        </mxCell>
        <mxCell id="fNavXlTei2wndbR-Wmgy-1863" value="" style="edgeStyle=none;rounded=0;jumpStyle=none;html=1;shadow=0;labelBackgroundColor=none;startArrow=classic;startFill=1;endArrow=classic;endFill=1;jettySize=auto;orthogonalLoop=1;strokeColor=#004C99;strokeWidth=3;fontFamily=Helvetica;fontSize=14;fontColor=#FFFFFF;spacing=5;" edge="1" parent="1" source="fNavXlTei2wndbR-Wmgy-1860" target="fNavXlTei2wndbR-Wmgy-1865">
          <mxGeometry relative="1" as="geometry">
            <mxPoint x="194" y="148" as="sourcePoint" />
            <mxPoint x="237.88906497622838" y="-134" as="targetPoint" />
          </mxGeometry>
        </mxCell>
        <mxCell id="fNavXlTei2wndbR-Wmgy-1864" value="&lt;h3&gt;&lt;font color=&quot;#ffffff&quot;&gt;客户端&lt;/font&gt;&lt;/h3&gt;&lt;h3&gt;&lt;font color=&quot;#ffffff&quot;&gt;0X0004&lt;/font&gt;&lt;/h3&gt;" style="rounded=1;whiteSpace=wrap;html=1;shadow=0;labelBackgroundColor=none;strokeWidth=3;fontFamily=Helvetica;fontSize=14;align=center;spacing=5;fontStyle=0;arcSize=7;perimeterSpacing=2;fillColor=#004C99;strokeColor=#6c8ebf;" vertex="1" parent="1">
          <mxGeometry x="213" y="13" width="150" height="69" as="geometry" />
        </mxCell>
        <mxCell id="fNavXlTei2wndbR-Wmgy-1865" value="&lt;h3&gt;&lt;font color=&quot;#ffffff&quot;&gt;客户端&lt;/font&gt;&lt;/h3&gt;&lt;h3&gt;&lt;font color=&quot;#ffffff&quot;&gt;0X0005&lt;/font&gt;&lt;/h3&gt;" style="rounded=1;whiteSpace=wrap;html=1;shadow=0;labelBackgroundColor=none;strokeWidth=3;fontFamily=Helvetica;fontSize=14;align=center;spacing=5;fontStyle=0;arcSize=7;perimeterSpacing=2;fillColor=#004C99;strokeColor=#6c8ebf;" vertex="1" parent="1">
          <mxGeometry x="213" y="111" width="150" height="69" as="geometry" />
        </mxCell>
        <mxCell id="fNavXlTei2wndbR-Wmgy-1866" value="&lt;h3&gt;&lt;font color=&quot;#ffffff&quot;&gt;客户端&lt;/font&gt;&lt;/h3&gt;&lt;h3&gt;&lt;font color=&quot;#ffffff&quot;&gt;0X0004&lt;/font&gt;&lt;/h3&gt;" style="rounded=1;whiteSpace=wrap;html=1;shadow=0;labelBackgroundColor=none;strokeWidth=3;fontFamily=Helvetica;fontSize=14;align=center;spacing=5;fontStyle=0;arcSize=7;perimeterSpacing=2;fillColor=#004C99;strokeColor=#6c8ebf;" vertex="1" parent="1">
          <mxGeometry x="768" y="339" width="150" height="69" as="geometry" />
        </mxCell>
        <mxCell id="fNavXlTei2wndbR-Wmgy-1867" value="&lt;h3&gt;&lt;font color=&quot;#ffffff&quot;&gt;客户端&lt;/font&gt;&lt;/h3&gt;&lt;h3&gt;&lt;font color=&quot;#ffffff&quot;&gt;0X0004&lt;/font&gt;&lt;/h3&gt;" style="rounded=1;whiteSpace=wrap;html=1;shadow=0;labelBackgroundColor=none;strokeWidth=3;fontFamily=Helvetica;fontSize=14;align=center;spacing=5;fontStyle=0;arcSize=7;perimeterSpacing=2;fillColor=#004C99;strokeColor=#6c8ebf;" vertex="1" parent="1">
          <mxGeometry x="768" y="535" width="150" height="69" as="geometry" />
        </mxCell>
        <mxCell id="fNavXlTei2wndbR-Wmgy-1838" value="" style="shape=table;startSize=0;container=1;collapsible=0;childLayout=tableLayout;fontSize=16;fillColor=#FF33FF;fontColor=#FFFFFF;strokeWidth=3;" vertex="1" parent="1">
          <mxGeometry x="-1112" y="225.5" width="304" height="145" as="geometry" />
        </mxCell>
        <mxCell id="fNavXlTei2wndbR-Wmgy-1839" value="" style="shape=tableRow;horizontal=0;startSize=0;swimlaneHead=0;swimlaneBody=0;strokeColor=inherit;top=0;left=0;bottom=0;right=0;collapsible=0;dropTarget=0;fillColor=none;points=[[0,0.5],[1,0.5]];portConstraint=eastwest;fontSize=16;" vertex="1" parent="fNavXlTei2wndbR-Wmgy-1838">
          <mxGeometry width="304" height="48" as="geometry" />
        </mxCell>
        <mxCell id="fNavXlTei2wndbR-Wmgy-1840" value="路由：0x0006" style="shape=partialRectangle;html=1;whiteSpace=wrap;connectable=0;strokeColor=inherit;overflow=hidden;fillColor=none;top=0;left=0;bottom=0;right=0;pointerEvents=1;fontSize=16;fontColor=#FFFFFF;" vertex="1" parent="fNavXlTei2wndbR-Wmgy-1839">
          <mxGeometry width="76" height="48" as="geometry">
            <mxRectangle width="76" height="48" as="alternateBounds" />
          </mxGeometry>
        </mxCell>
        <mxCell id="fNavXlTei2wndbR-Wmgy-1841" value="0X0004" style="shape=partialRectangle;html=1;whiteSpace=wrap;connectable=0;strokeColor=default;overflow=hidden;fillColor=#004C99;top=0;left=0;bottom=0;right=0;pointerEvents=1;fontSize=16;fontColor=#FFFFFF;strokeWidth=4;" vertex="1" parent="fNavXlTei2wndbR-Wmgy-1839">
          <mxGeometry x="76" width="76" height="48" as="geometry">
            <mxRectangle width="76" height="48" as="alternateBounds" />
          </mxGeometry>
        </mxCell>
        <mxCell id="fNavXlTei2wndbR-Wmgy-1842" value="0X0005" style="shape=partialRectangle;html=1;whiteSpace=wrap;connectable=0;strokeColor=default;overflow=hidden;fillColor=#004C99;top=0;left=0;bottom=0;right=0;pointerEvents=1;fontSize=16;fontColor=#FFFFFF;strokeWidth=4;" vertex="1" parent="fNavXlTei2wndbR-Wmgy-1839">
          <mxGeometry x="152" width="76" height="48" as="geometry">
            <mxRectangle width="76" height="48" as="alternateBounds" />
          </mxGeometry>
        </mxCell>
        <mxCell id="fNavXlTei2wndbR-Wmgy-1890" value="……" style="shape=partialRectangle;html=1;whiteSpace=wrap;connectable=0;strokeColor=default;overflow=hidden;fillColor=#004C99;top=0;left=0;bottom=0;right=0;pointerEvents=1;fontSize=16;fontColor=#FFFFFF;strokeWidth=4;" vertex="1" parent="fNavXlTei2wndbR-Wmgy-1839">
          <mxGeometry x="228" width="76" height="48" as="geometry">
            <mxRectangle width="76" height="48" as="alternateBounds" />
          </mxGeometry>
        </mxCell>
        <mxCell id="fNavXlTei2wndbR-Wmgy-1843" value="" style="shape=tableRow;horizontal=0;startSize=0;swimlaneHead=0;swimlaneBody=0;strokeColor=inherit;top=0;left=0;bottom=0;right=0;collapsible=0;dropTarget=0;fillColor=none;points=[[0,0.5],[1,0.5]];portConstraint=eastwest;fontSize=16;" vertex="1" parent="fNavXlTei2wndbR-Wmgy-1838">
          <mxGeometry y="48" width="304" height="49" as="geometry" />
        </mxCell>
        <mxCell id="fNavXlTei2wndbR-Wmgy-1844" value="路由：0x0007" style="shape=partialRectangle;html=1;whiteSpace=wrap;connectable=0;strokeColor=inherit;overflow=hidden;fillColor=none;top=0;left=0;bottom=0;right=0;pointerEvents=1;fontSize=16;fontColor=#FFFFFF;" vertex="1" parent="fNavXlTei2wndbR-Wmgy-1843">
          <mxGeometry width="76" height="49" as="geometry">
            <mxRectangle width="76" height="49" as="alternateBounds" />
          </mxGeometry>
        </mxCell>
        <mxCell id="fNavXlTei2wndbR-Wmgy-1845" value="0X0008" style="shape=partialRectangle;whiteSpace=wrap;connectable=0;strokeColor=default;overflow=hidden;fillColor=#004C99;top=0;left=0;bottom=0;right=0;pointerEvents=1;fontSize=16;html=1;fontColor=#FFFFFF;strokeWidth=3;" vertex="1" parent="fNavXlTei2wndbR-Wmgy-1843">
          <mxGeometry x="76" width="76" height="49" as="geometry">
            <mxRectangle width="76" height="49" as="alternateBounds" />
          </mxGeometry>
        </mxCell>
        <mxCell id="fNavXlTei2wndbR-Wmgy-1846" value="0X0009" style="shape=partialRectangle;html=1;whiteSpace=wrap;connectable=0;strokeColor=default;overflow=hidden;fillColor=#004C99;top=0;left=0;bottom=0;right=0;pointerEvents=1;fontSize=16;fontColor=#FFFFFF;strokeWidth=3;" vertex="1" parent="fNavXlTei2wndbR-Wmgy-1843">
          <mxGeometry x="152" width="76" height="49" as="geometry">
            <mxRectangle width="76" height="49" as="alternateBounds" />
          </mxGeometry>
        </mxCell>
        <mxCell id="fNavXlTei2wndbR-Wmgy-1891" value="……" style="shape=partialRectangle;html=1;whiteSpace=wrap;connectable=0;strokeColor=default;overflow=hidden;fillColor=#004C99;top=0;left=0;bottom=0;right=0;pointerEvents=1;fontSize=16;fontColor=#FFFFFF;strokeWidth=3;" vertex="1" parent="fNavXlTei2wndbR-Wmgy-1843">
          <mxGeometry x="228" width="76" height="49" as="geometry">
            <mxRectangle width="76" height="49" as="alternateBounds" />
          </mxGeometry>
        </mxCell>
        <mxCell id="fNavXlTei2wndbR-Wmgy-1847" value="" style="shape=tableRow;horizontal=0;startSize=0;swimlaneHead=0;swimlaneBody=0;strokeColor=inherit;top=0;left=0;bottom=0;right=0;collapsible=0;dropTarget=0;fillColor=none;points=[[0,0.5],[1,0.5]];portConstraint=eastwest;fontSize=16;" vertex="1" parent="fNavXlTei2wndbR-Wmgy-1838">
          <mxGeometry y="97" width="304" height="48" as="geometry" />
        </mxCell>
        <mxCell id="fNavXlTei2wndbR-Wmgy-1848" value="路由：0x000A" style="shape=partialRectangle;html=1;whiteSpace=wrap;connectable=0;strokeColor=inherit;overflow=hidden;fillColor=none;top=0;left=0;bottom=0;right=0;pointerEvents=1;fontSize=16;fontColor=#FFFFFF;" vertex="1" parent="fNavXlTei2wndbR-Wmgy-1847">
          <mxGeometry width="76" height="48" as="geometry">
            <mxRectangle width="76" height="48" as="alternateBounds" />
          </mxGeometry>
        </mxCell>
        <mxCell id="fNavXlTei2wndbR-Wmgy-1849" value="0X000B" style="shape=partialRectangle;html=1;whiteSpace=wrap;connectable=0;strokeColor=default;overflow=hidden;fillColor=#004C99;top=0;left=0;bottom=0;right=0;pointerEvents=1;fontSize=16;fontColor=#FFFFFF;strokeWidth=3;" vertex="1" parent="fNavXlTei2wndbR-Wmgy-1847">
          <mxGeometry x="76" width="76" height="48" as="geometry">
            <mxRectangle width="76" height="48" as="alternateBounds" />
          </mxGeometry>
        </mxCell>
        <mxCell id="fNavXlTei2wndbR-Wmgy-1850" value="0X000C" style="shape=partialRectangle;html=1;whiteSpace=wrap;connectable=0;strokeColor=default;overflow=hidden;fillColor=#004C99;top=0;left=0;bottom=0;right=0;pointerEvents=1;fontSize=16;fontColor=#FFFFFF;strokeWidth=3;" vertex="1" parent="fNavXlTei2wndbR-Wmgy-1847">
          <mxGeometry x="152" width="76" height="48" as="geometry">
            <mxRectangle width="76" height="48" as="alternateBounds" />
          </mxGeometry>
        </mxCell>
        <mxCell id="fNavXlTei2wndbR-Wmgy-1892" value="……" style="shape=partialRectangle;html=1;whiteSpace=wrap;connectable=0;strokeColor=default;overflow=hidden;fillColor=#004C99;top=0;left=0;bottom=0;right=0;pointerEvents=1;fontSize=16;fontColor=#FFFFFF;strokeWidth=3;" vertex="1" parent="fNavXlTei2wndbR-Wmgy-1847">
          <mxGeometry x="228" width="76" height="48" as="geometry">
            <mxRectangle width="76" height="48" as="alternateBounds" />
          </mxGeometry>
        </mxCell>
        <mxCell id="fNavXlTei2wndbR-Wmgy-1917" value="" style="shape=table;startSize=0;container=1;collapsible=0;childLayout=tableLayout;fontSize=16;fontColor=#FFFFFF;fillColor=#004C99;" vertex="1" parent="1">
          <mxGeometry x="-1112" y="117" width="106.75" height="80" as="geometry" />
        </mxCell>
        <mxCell id="fNavXlTei2wndbR-Wmgy-1918" value="" style="shape=tableRow;horizontal=0;startSize=0;swimlaneHead=0;swimlaneBody=0;strokeColor=inherit;top=0;left=0;bottom=0;right=0;collapsible=0;dropTarget=0;fillColor=none;points=[[0,0.5],[1,0.5]];portConstraint=eastwest;fontSize=16;" vertex="1" parent="fNavXlTei2wndbR-Wmgy-1917">
          <mxGeometry width="106.75" height="40" as="geometry" />
        </mxCell>
        <mxCell id="fNavXlTei2wndbR-Wmgy-1919" value="0X0002" style="shape=partialRectangle;html=1;whiteSpace=wrap;connectable=0;strokeColor=inherit;overflow=hidden;fillColor=none;top=0;left=0;bottom=0;right=0;pointerEvents=1;fontSize=16;fontColor=#FFFFFF;" vertex="1" parent="fNavXlTei2wndbR-Wmgy-1918">
          <mxGeometry width="107" height="40" as="geometry">
            <mxRectangle width="107" height="40" as="alternateBounds" />
          </mxGeometry>
        </mxCell>
        <mxCell id="fNavXlTei2wndbR-Wmgy-1922" value="" style="shape=tableRow;horizontal=0;startSize=0;swimlaneHead=0;swimlaneBody=0;strokeColor=inherit;top=0;left=0;bottom=0;right=0;collapsible=0;dropTarget=0;fillColor=none;points=[[0,0.5],[1,0.5]];portConstraint=eastwest;fontSize=16;" vertex="1" parent="fNavXlTei2wndbR-Wmgy-1917">
          <mxGeometry y="40" width="106.75" height="40" as="geometry" />
        </mxCell>
        <mxCell id="fNavXlTei2wndbR-Wmgy-1923" value="0X0003" style="shape=partialRectangle;html=1;whiteSpace=wrap;connectable=0;strokeColor=inherit;overflow=hidden;fillColor=none;top=0;left=0;bottom=0;right=0;pointerEvents=1;fontSize=16;fontColor=#FFFFFF;" vertex="1" parent="fNavXlTei2wndbR-Wmgy-1922">
          <mxGeometry width="107" height="40" as="geometry">
            <mxRectangle width="107" height="40" as="alternateBounds" />
          </mxGeometry>
        </mxCell>
      </root>
    </mxGraphModel>
  </diagram>
</mxfile>
